<?xml version="1.0" encoding="UTF-8" standalone="no"?>
<!-- Created with Inkscape (http://www.inkscape.org/) -->

<svg
   xmlns:dc="http://purl.org/dc/elements/1.1/"
   xmlns:cc="http://creativecommons.org/ns#"
   xmlns:rdf="http://www.w3.org/1999/02/22-rdf-syntax-ns#"
   xmlns:svg="http://www.w3.org/2000/svg"
   xmlns="http://www.w3.org/2000/svg"
   xmlns:sodipodi="http://sodipodi.sourceforge.net/DTD/sodipodi-0.dtd"
   xmlns:inkscape="http://www.inkscape.org/namespaces/inkscape"
   width="48.551037mm"
   height="39.594856mm"
   viewBox="0 0 48.551037 39.594856"
   version="1.1"
   id="svg940"
   inkscape:version="0.92.3 (2405546, 2018-03-11)"
   sodipodi:docname="new-logo-primary.svg">
  <defs
     id="defs934" />
  <sodipodi:namedview
     id="base"
     pagecolor="#ffffff"
     bordercolor="#666666"
     borderopacity="1.0"
     inkscape:pageopacity="0.0"
     inkscape:pageshadow="2"
     inkscape:zoom="2.8"
     inkscape:cx="79.768391"
     inkscape:cy="62.720479"
     inkscape:document-units="mm"
     inkscape:current-layer="layer1"
     showgrid="false"
     inkscape:pagecheckerboard="true"
     fit-margin-top="0"
     fit-margin-left="0"
     fit-margin-right="0"
     fit-margin-bottom="0"
     inkscape:window-width="1366"
     inkscape:window-height="746"
     inkscape:window-x="-8"
     inkscape:window-y="-8"
     inkscape:window-maximized="1" />
  <metadata
     id="metadata937">
    <rdf:RDF>
      <cc:Work
         rdf:about="">
        <dc:format>image/svg+xml</dc:format>
        <dc:type
           rdf:resource="http://purl.org/dc/dcmitype/StillImage" />
        <dc:title></dc:title>
      </cc:Work>
    </rdf:RDF>
  </metadata>
  <g
     inkscape:label="Layer 1"
     inkscape:groupmode="layer"
     id="layer1"
     transform="translate(166.39457,-47.393057)">
    <g
       id="g1530">
      <path
         d="m -156.74462,69.066703 q 0.58426,0 0.89819,0.449741 0.25288,0.356044 0.25288,0.862003 0,0.908851 -0.56681,2.070682 -0.49706,1.002548 -1.23829,1.798964 -0.48834,0.515327 -0.76739,0.515327 -0.18312,0 -0.34009,-0.196761 -0.11337,-0.140544 -0.11337,-0.318566 0,-0.327936 0.53194,-0.749569 0.74996,-0.599655 1.19469,-1.311744 0.65403,-1.030656 0.65403,-1.742746 0,-0.290458 -0.12209,-0.431002 -0.11337,-0.140544 -0.34882,-0.140544 -0.47961,0 -1.36036,0.749568 -1.00284,0.843265 -2.11904,2.295553 -1.42142,1.845811 -2.16265,3.635406 -0.76739,1.855181 -0.76739,3.166926 0,0.627763 0.34009,1.068134 0.37498,0.496589 0.91564,0.496589 0.9418,0 2.37193,-1.574094 0.4273,-0.477849 1.03772,-1.3867 0.40114,-0.580916 0.5145,-0.824526 0.1308,-0.271718 0.30521,-0.271718 0.19185,0 0.19185,0.196762 0,0.421632 -0.97668,1.89266 -0.81099,1.227417 -1.78767,2.005095 -1.09876,0.871373 -2.07544,0.871373 -1.02028,0 -1.57838,-0.983809 -0.35753,-0.627764 -0.35753,-1.433549 0,-2.023834 1.77895,-5.106433 1.51734,-2.623489 3.20036,-4.225691 1.45629,-1.377331 2.49402,-1.377331 z"
         style="font-style:normal;font-variant:normal;font-weight:normal;font-stretch:normal;font-size:medium;line-height:1.25;font-family:'Freestyle Script';-inkscape-font-specification:'Freestyle Script';letter-spacing:0px;word-spacing:0px;fill:#e84545;fill-opacity:1;stroke:#e84545;stroke-width:0.46280396;stroke-opacity:1"
         id="path1497"
         inkscape:connector-curvature="0" />
      <path
         d="m -154.57327,79.570026 q -0.28777,0.543437 -0.56681,0.918222 -0.54939,0.730829 -1.09004,0.730829 -0.47091,0 -0.73251,-0.47785 -0.16569,-0.309197 -0.16569,-0.730829 0,-1.040026 0.61043,-2.295552 0.68018,-1.396071 1.63941,-2.14564 0.62787,-0.487219 1.21213,-0.487219 0.36626,0 0.61042,0.24361 0.20929,0.215501 0.20929,0.487219 0,0.206131 -0.14824,0.571546 0.13081,0.196762 0.13081,0.346675 0,0.196762 -0.24418,0.646502 -0.25289,0.459111 -0.50577,1.218049 -0.27033,0.805786 -0.27033,1.293005 0,0.393523 0.218,0.646503 0.0611,0.06558 0.35754,0.215501 0.21801,0.112435 0.21801,0.393523 0,0.178023 -0.12209,0.290457 -0.13081,0.121805 -0.30521,0.121805 -0.4709,0 -0.81099,-0.449741 -0.27905,-0.365414 -0.27905,-0.91822 0,-0.187392 0.0348,-0.618395 z m 1.09005,-3.082599 q -0.10464,-0.206131 -0.22673,-0.299826 -0.12208,-0.103065 -0.26161,-0.103065 -0.66274,0 -1.43885,1.246157 -0.8546,1.377331 -0.8546,2.333031 0,0.23424 0.0785,0.356045 0.0872,0.121805 0.2529,0.121805 0.41857,0 0.97667,-0.9557 0.31393,-0.524697 0.77612,-1.545985 0.30521,-0.665242 0.44473,-0.880742 0.0697,-0.112435 0.25289,-0.271719 z"
         style="font-style:normal;font-variant:normal;font-weight:normal;font-stretch:normal;font-size:medium;line-height:1.25;font-family:'Freestyle Script';-inkscape-font-specification:'Freestyle Script';letter-spacing:0px;word-spacing:0px;fill:#e84545;fill-opacity:1;stroke:#e84545;stroke-width:0.46280396;stroke-opacity:1"
         id="path1499"
         inkscape:connector-curvature="0" />
      <path
         d="m -149.98637,76.140752 q 0.35754,-0.24361 0.53194,-0.337305 0.35753,-0.187393 0.69763,-0.187393 0.38369,0 0.57554,0.24361 0.19185,0.23424 0.19185,0.71209 0,0.655872 -0.42729,1.574093 -0.66275,1.452289 -1.60454,2.286183 -0.79356,0.702721 -1.49119,0.702721 -0.38369,0 -0.75866,-0.318567 -1.19469,2.59538 -2.13648,5.293825 -0.20057,0.646503 -0.47091,0.646503 -0.1308,0 -0.2616,-0.187393 -0.0959,-0.131174 -0.0959,-0.290457 0,-0.505959 1.15109,-3.28873 1.77894,-4.291279 3.37476,-7.130268 0.33138,-0.599654 0.44474,-0.824525 0.30521,-0.609024 0.59298,-0.609024 0.29649,0 0.29649,0.384154 0,0.2155 -0.20928,0.580915 -0.25289,0.46848 -0.40114,0.749568 z m -1.96207,3.888385 q 0.19185,0.215501 0.47962,0.215501 0.81099,0 1.79638,-1.545985 0.36625,-0.571545 0.58426,-1.171199 0.17442,-0.47785 0.17442,-0.72146 0,-0.168653 -0.0785,-0.252979 -0.0697,-0.08432 -0.22672,-0.08432 -0.40986,0 -1.00284,0.609024 -0.56683,0.590285 -1.09005,1.658419 -0.47961,0.983809 -0.63658,1.293005 z"
         style="font-style:normal;font-variant:normal;font-weight:normal;font-stretch:normal;font-size:medium;line-height:1.25;font-family:'Freestyle Script';-inkscape-font-specification:'Freestyle Script';letter-spacing:0px;word-spacing:0px;fill:#e84545;fill-opacity:1;stroke:#e84545;stroke-width:0.46280396;stroke-opacity:1"
         id="path1501"
         inkscape:connector-curvature="0" />
      <path
         d="m -145.95757,77.499344 q 0.4709,0 0.4709,0.412263 0,0.309197 -0.43602,0.468481 -0.74995,0.290457 -0.74995,1.040025 0,0.599655 0.43601,0.93696 0.37499,0.281088 0.95052,0.281088 1.15109,0 2.0144,-0.721459 0.54066,-0.45911 0.54066,-1.161831 0,-0.431001 -0.15697,-0.777677 -0.16568,-0.356045 -0.50578,-0.899481 -0.52322,-0.843265 -0.88075,-1.536615 -0.40113,-0.768308 -0.40113,-1.508507 0,-1.752115 1.61326,-3.27936 0.8546,-0.796417 1.88359,-1.293005 0.85459,-0.402893 1.64814,-0.402893 0.5145,0 0.87204,0.290457 0.43601,0.346675 0.43601,0.94633 0,0.93696 -0.94179,2.023835 -0.88948,1.021286 -2.07544,1.667789 -0.59298,0.318566 -0.89819,0.318566 -0.20057,0 -0.35754,-0.178022 -0.10465,-0.121805 -0.10465,-0.271718 0,-0.346675 0.57555,-0.562177 1.05516,-0.402893 1.86615,-1.133722 1.04644,-0.93696 1.04644,-1.63968 0,-0.271718 -0.20929,-0.440372 -0.16568,-0.131174 -0.39241,-0.131174 -0.60171,0 -1.50862,0.496589 -1.22085,0.665242 -1.91847,1.714637 -0.61043,0.908852 -0.61043,1.770855 0,0.627763 0.32266,1.293005 0.27033,0.534067 0.6889,1.208679 0.40114,0.646503 0.68019,1.199309 0.32265,0.655872 0.32265,1.227418 0,1.105613 -1.17724,1.958247 -1.00285,0.71209 -2.26729,0.71209 -1.24701,0 -1.95336,-0.740199 -0.53194,-0.562176 -0.53194,-1.293005 0,-0.815156 0.50578,-1.367962 0.30521,-0.337305 0.72379,-0.505959 0.28777,-0.121805 0.47962,-0.121805 z"
         style="font-style:normal;font-variant:normal;font-weight:normal;font-stretch:normal;font-size:medium;line-height:1.25;font-family:'Freestyle Script';-inkscape-font-specification:'Freestyle Script';letter-spacing:0px;word-spacing:0px;fill:#e84545;fill-opacity:1;stroke:#e84545;stroke-width:0.46280396;stroke-opacity:1"
         id="path1503"
         inkscape:connector-curvature="0" />
      <path
         d="m -138.62377,77.283844 q 0.6453,-0.72146 1.29061,-1.208679 0.82843,-0.618393 1.18597,-0.618393 0.14824,0 0.28776,0.131174 0.15697,0.149913 0.15697,0.346675 0,0.25298 -0.37497,0.787047 -0.72379,1.030656 -1.09877,1.87392 -0.33137,0.730829 -0.33137,0.993178 0,0.252979 0.22673,0.252979 0.47089,0 1.5871,-1.798964 0.22673,-0.365414 0.40985,-0.365414 0.18314,0 0.18314,0.22487 0,0.365415 -0.66275,1.396071 -0.57554,0.899482 -1.20341,1.377332 -0.44474,0.327936 -0.80227,0.327936 -0.37497,0 -0.54066,-0.346675 -0.10464,-0.215502 -0.10464,-0.477851 0,-0.833894 0.54938,-1.902028 0.1308,-0.25298 0.78483,-1.44292 -1.77895,0.96507 -3.00851,4.169474 -0.11337,0.365414 -0.34882,0.365414 -0.16568,0 -0.27033,-0.121805 -0.10464,-0.131174 -0.10464,-0.318566 0,-0.309197 0.55809,-1.752116 1.03773,-2.679706 1.93592,-4.534887 0.89819,-1.873921 1.99696,-3.888385 0.26161,-0.487219 0.40986,-0.655873 0.14824,-0.168652 0.31392,-0.168652 0.15697,0 0.27034,0.178023 0.0872,0.131174 0.0872,0.299827 0,0.262349 -0.27905,0.70272 -0.9418,1.564723 -1.87488,3.438644 -1.00283,2.005095 -1.22956,2.735924 z"
         style="font-style:normal;font-variant:normal;font-weight:normal;font-stretch:normal;font-size:medium;line-height:1.25;font-family:'Freestyle Script';-inkscape-font-specification:'Freestyle Script';letter-spacing:0px;word-spacing:0px;fill:#e84545;fill-opacity:1;stroke:#e84545;stroke-width:0.46280396;stroke-opacity:1"
         id="path1505"
         inkscape:connector-curvature="0" />
      <path
         d="m -132.59802,79.570026 q -0.28777,0.543437 -0.56683,0.918222 -0.54937,0.730829 -1.09004,0.730829 -0.47089,0 -0.73251,-0.47785 -0.16568,-0.309197 -0.16568,-0.730829 0,-1.040026 0.61043,-2.295552 0.68018,-1.396071 1.63942,-2.14564 0.62787,-0.487219 1.21213,-0.487219 0.36625,0 0.61042,0.24361 0.20929,0.215501 0.20929,0.487219 0,0.206131 -0.14825,0.571546 0.1308,0.196762 0.1308,0.346675 0,0.196762 -0.24417,0.646502 -0.25288,0.459111 -0.50578,1.218049 -0.27032,0.805786 -0.27032,1.293005 0,0.393523 0.21801,0.646503 0.0611,0.06558 0.35752,0.215501 0.21801,0.112435 0.21801,0.393523 0,0.178023 -0.12208,0.290457 -0.1308,0.121805 -0.30521,0.121805 -0.4709,0 -0.811,-0.449741 -0.27904,-0.365414 -0.27904,-0.91822 0,-0.187392 0.0349,-0.618395 z m 1.09004,-3.082599 q -0.10464,-0.206131 -0.22673,-0.299826 -0.12208,-0.103065 -0.26161,-0.103065 -0.66275,0 -1.43885,1.246157 -0.8546,1.377331 -0.8546,2.333031 0,0.23424 0.0785,0.356045 0.0872,0.121805 0.25288,0.121805 0.41858,0 0.97669,-0.9557 0.31393,-0.524697 0.7761,-1.545985 0.30522,-0.665242 0.44474,-0.880742 0.0697,-0.112435 0.25289,-0.271719 z"
         style="font-style:normal;font-variant:normal;font-weight:normal;font-stretch:normal;font-size:medium;line-height:1.25;font-family:'Freestyle Script';-inkscape-font-specification:'Freestyle Script';letter-spacing:0px;word-spacing:0px;fill:#e84545;fill-opacity:1;stroke:#e84545;stroke-width:0.46280396;stroke-opacity:1"
         id="path1507"
         inkscape:connector-curvature="0" />
      <path
         d="m -128.93548,78.033412 q 0.85459,-0.983808 1.97079,-1.920768 0.40114,-0.337307 0.8546,-0.627764 0.22672,-0.140544 0.28777,-0.140544 0.13081,0 0.2616,0.206131 0.0785,0.112436 0.0785,0.206131 0,0.168654 -0.33136,0.459111 -0.88947,0.758937 -0.88947,1.143091 0,0.215501 0.22672,0.215501 0.37498,0 1.29061,-0.665242 0.15697,-0.112434 0.26161,-0.112434 0.0697,0 0.13953,0.07495 0.0784,0.08432 0.0784,0.178023 0,0.281088 -0.73251,0.862002 -0.76738,0.618395 -1.4563,0.618395 -0.27905,0 -0.5145,-0.159284 -0.20057,-0.131174 -0.20057,-0.46848 0,-0.234239 0.18314,-0.534067 -0.68892,0.524698 -1.62198,1.798963 -0.54067,0.787047 -1.07261,1.939508 -0.20057,0.431002 -0.49706,0.431002 -0.32265,0 -0.32265,-0.327936 0,-0.318567 0.50578,-1.705268 0.74995,-2.061313 1.56966,-3.195035 0.50578,-0.702719 0.84587,-0.702719 0.11336,0 0.20929,0.07495 0.11336,0.09369 0.11336,0.234241 0,0.140544 -0.1744,0.393522 -0.0349,0.04685 -0.46218,0.627764 -0.39242,0.552807 -0.6017,1.096243 z"
         style="font-style:normal;font-variant:normal;font-weight:normal;font-stretch:normal;font-size:medium;line-height:1.25;font-family:'Freestyle Script';-inkscape-font-specification:'Freestyle Script';letter-spacing:0px;word-spacing:0px;fill:#e84545;fill-opacity:1;stroke:#e84545;stroke-width:0.46280396;stroke-opacity:1"
         id="path1509"
         inkscape:connector-curvature="0" />
      <path
         d="M -124.36602,79.317048 V 79.4857 q 0,0.206131 0.0959,0.356045 0.21801,0.346676 0.71507,0.346676 1.09004,0 2.52017,-1.798964 0.25289,-0.309197 0.4273,-0.309197 0.0959,0 0.17441,0.103065 0.0523,0.07495 0.0523,0.140544 0,0.365414 -0.83715,1.236787 -0.65403,0.683981 -1.39526,1.114983 -0.74122,0.431001 -1.37781,0.431001 -0.65403,0 -1.029,-0.487219 -0.25288,-0.337306 -0.25288,-0.918221 0,-1.583462 1.38653,-3.101338 1.12492,-1.236788 1.96207,-1.236788 0.22673,0 0.40986,0.149914 0.22672,0.196762 0.22672,0.515328 0,0.496589 -0.42729,1.218049 -0.88076,1.499136 -2.65098,2.070682 z m 0.19184,-0.730829 q 0.61043,-0.224871 0.95924,-0.505959 0.61042,-0.505959 0.96796,-1.143091 0.13081,-0.22487 0.13081,-0.402893 0,-0.187393 -0.1657,-0.187393 -0.22673,0 -0.6453,0.365416 -0.74995,0.646501 -1.24701,1.87392 z"
         style="font-style:normal;font-variant:normal;font-weight:normal;font-stretch:normal;font-size:medium;line-height:1.25;font-family:'Freestyle Script';-inkscape-font-specification:'Freestyle Script';letter-spacing:0px;word-spacing:0px;fill:#e84545;fill-opacity:1;stroke:#e84545;stroke-width:0.46280396;stroke-opacity:1"
         id="path1511"
         inkscape:connector-curvature="0" />
    </g>
    <path
       style="fill:none;fill-opacity:1;stroke:#e84545;stroke-width:1.32291663;stroke-linecap:round;stroke-miterlimit:4;stroke-dasharray:none;stroke-opacity:1"
       d="m -143.92018,62.220555 h 25.41519 v 21.034376 h -47.22812 v -21.034376 0 h 9.38516"
       id="path920"
       inkscape:connector-curvature="0"
       sodipodi:nodetypes="ccccccc" />
    <path
       style="fill:none;fill-opacity:1;stroke:#e84545;stroke-width:1.32291663;stroke-miterlimit:4;stroke-dasharray:none;stroke-opacity:1"
       d="m -150.18389,71.015068 c -0.0593,-0.757705 -0.3884,-2.52838 -0.65998,-3.550448 -0.28692,-1.079799 -0.75405,-2.323214 -1.20585,-3.209764 -0.41878,-0.821731 -1.22893,-1.956227 -1.81748,-2.545115 -0.87235,-0.872831 -2.08282,-1.645986 -2.99817,-1.914996 l -0.32567,-0.09572 0.55794,-0.2138 c 1.54257,-0.591111 2.73494,-1.557558 3.77673,-3.06112 1.05769,-1.526508 1.72903,-3.152816 2.22559,-5.391445 0.19684,-0.887405 0.4655,-2.540799 0.4655,-2.864791 0,-0.09343 0.0232,-0.148221 0.0516,-0.121836 0.0284,0.02637 0.0516,0.120225 0.0516,0.208569 0,0.08834 0.0605,0.566277 0.13438,1.062074 0.36933,2.477555 1.03283,4.567385 1.98914,6.265235 1.04536,1.855968 2.58273,3.253241 4.28806,3.897298 l 0.56093,0.211851 -0.40228,0.141658 c -0.60089,0.211588 -1.36146,0.627275 -1.94618,1.063673 -2.32032,1.731746 -3.85017,4.849884 -4.48997,9.15143 -0.0737,0.495796 -0.13444,0.967063 -0.13487,1.047261 -2.9e-4,0.0802 -0.0203,0.191974 -0.0441,0.248396 -0.0278,0.06588 -0.0553,-0.05164 -0.077,-0.328412 z"
       id="path885"
       inkscape:connector-curvature="0" />
  </g>
</svg>
