<?xml version="1.0" standalone="no"?>
<!DOCTYPE svg PUBLIC "-//W3C//DTD SVG 20010904//EN"
 "http://www.w3.org/TR/2001/REC-SVG-20010904/DTD/svg10.dtd">
<svg version="1.0" xmlns="http://www.w3.org/2000/svg"
 width="1200.000000pt" height="1200.000000pt" viewBox="0 0 1200.000000 1200.000000"
 preserveAspectRatio="xMidYMid meet">
<metadata>
Created by potrace 1.11, written by Peter Selinger 2001-2013
</metadata>
<g transform="translate(0.000000,1200.000000) scale(0.100000,-0.100000)"
fill="#000000" stroke="none">
<path d="M4788 10660 c-16 -5 -28 -6 -28 -3 0 3 -6 1 -12 -5 -13 -10 -77 -27
-90 -24 -5 1 -8 -2 -8 -8 0 -5 -5 -10 -10 -10 -39 0 -240 -168 -240 -200 0 -6
-4 -10 -10 -10 -5 0 -10 -5 -10 -10 0 -6 -11 -27 -25 -48 -24 -36 -73 -158
-79 -197 -2 -11 -6 -33 -9 -50 -12 -69 -17 -115 -22 -195 -10 -163 -21 -202
-76 -265 -36 -41 -121 -84 -179 -92 -19 -2 -784 -5 -1700 -7 -1317 -2 -1675
-5 -1715 -15 -27 -7 -54 -14 -60 -15 -5 -2 -18 -6 -27 -9 -29 -11 -48 -16 -54
-16 -4 0 -10 -3 -13 -8 -3 -4 -24 -18 -45 -30 -65 -35 -158 -113 -204 -170
-40 -49 -111 -169 -116 -196 -2 -7 -6 -19 -9 -27 -3 -8 -9 -28 -13 -45 -4 -16
-10 -37 -13 -45 -11 -29 -11 -6982 0 -7035 6 -27 12 -54 13 -60 2 -5 7 -23 11
-40 20 -74 79 -176 144 -250 86 -97 242 -199 316 -206 6 0 15 -4 20 -9 6 -5
30 -12 55 -17 40 -7 10759 -11 10828 -4 15 2 33 8 40 13 6 6 12 8 12 5 0 -3
15 -1 33 4 17 6 37 11 42 13 21 6 90 41 93 49 2 4 9 7 14 7 14 0 108 70 145
108 66 67 130 158 148 212 2 6 23 59 32 80 32 79 33 146 33 3614 0 3601 0
3519 -37 3606 -3 8 -5 18 -5 23 1 4 -3 7 -10 7 -6 0 -9 3 -5 6 11 12 -60 135
-118 203 -66 78 -201 175 -275 196 -3 1 -13 5 -22 9 -9 4 -25 9 -35 11 -10 2
-18 4 -18 5 0 1 -8 3 -17 6 -10 2 -26 6 -35 8 -10 3 -25 5 -34 5 -14 1 -16 28
-15 255 1 247 0 255 -19 258 -17 3 -2292 2 -2336 -1 -14 -1 -16 -27 -15 -242
0 -132 -2 -246 -6 -252 -7 -11 -1179 -15 -1228 -4 -14 3 -35 8 -47 11 -34 7
-76 32 -107 62 -29 29 -62 84 -50 84 4 0 2 6 -4 13 -12 14 -21 82 -27 202 -4
82 -10 140 -20 185 -4 14 -8 35 -11 48 -25 123 -104 263 -200 357 -44 42 -175
125 -198 125 -7 0 -31 8 -52 18 -36 16 -115 17 -1139 19 -605 1 -1112 -2
-1127 -7z m2197 -390 c57 -28 86 -57 119 -120 41 -79 51 -136 61 -320 4 -91
27 -213 50 -272 6 -15 2 -18 -21 -19 -41 -1 -2594 -1 -2621 0 l-22 1 19 43
c10 23 21 56 24 72 3 17 8 41 11 55 4 23 8 65 20 235 9 126 42 211 105 273 84
82 9 77 1173 77 l1032 0 50 -25z m4012 -666 l2 -64 -32 0 c-41 -1 -1452 -1
-1532 0 l-60 0 2 57 c1 32 2 61 2 64 1 4 364 7 809 7 l807 0 2 -64z m357 -546
c45 -13 44 -13 97 -58 39 -32 84 -113 75 -136 -3 -7 -2 -15 2 -18 8 -5 7
-6818 -1 -6858 -17 -82 -111 -172 -194 -184 -57 -9 -374 -10 -379 -2 -3 4 -15
4 -27 0 -26 -9 -444 -9 -453 0 -3 4 -16 3 -28 0 -18 -7 -442 -8 -456 -2 -3 1
-9 1 -15 0 -5 -2 -84 -3 -174 -4 l-164 -1 -33 53 c-19 29 -34 57 -34 62 0 6
-4 10 -10 10 -5 0 -10 7 -10 15 0 8 -4 15 -10 15 -5 0 -10 4 -10 9 0 14 -52
91 -62 91 -4 0 -8 5 -8 11 0 9 -43 72 -60 89 -3 3 -17 21 -31 40 -15 19 -35
45 -45 56 -11 12 -35 40 -54 64 -76 91 -299 307 -409 397 -19 15 -43 36 -53
45 -10 10 -21 18 -24 18 -3 0 -26 17 -52 39 -26 21 -76 58 -112 82 -36 24 -66
47 -68 51 -2 5 -8 8 -13 8 -6 0 -15 4 -22 10 -25 21 -119 80 -189 119 -123 67
-119 57 -46 132 92 95 148 158 193 217 21 29 43 52 47 52 4 0 8 5 8 11 0 6 11
25 25 43 14 17 29 36 34 41 56 71 251 398 251 422 0 7 4 13 9 13 5 0 12 10 16
23 10 30 7 23 44 102 31 66 67 157 112 285 19 53 24 70 33 108 3 9 16 60 30
112 34 131 63 279 71 365 2 17 4 30 5 30 8 0 24 271 23 400 0 109 -9 284 -18
360 -2 17 -6 50 -9 75 -3 25 -10 68 -15 95 -6 28 -12 66 -15 85 -3 19 -10 50
-15 68 -5 17 -8 32 -5 32 3 0 0 9 -6 20 -6 10 -12 32 -14 47 -2 15 -14 62 -26
103 -12 41 -23 80 -24 85 -2 6 -6 17 -9 25 -3 8 -26 71 -52 140 -72 193 -273
585 -306 598 -5 2 -9 8 -9 13 0 11 -71 113 -82 117 -5 2 -8 8 -8 13 0 8 -51
80 -70 99 -3 3 -30 34 -60 70 -30 36 -58 67 -62 68 -5 2 -8 10 -8 18 0 9 -4
12 -10 9 -5 -3 -10 -2 -10 2 0 18 -187 201 -309 303 -29 25 -59 51 -66 58 -8
6 -18 12 -23 12 -6 0 -12 4 -14 8 -1 4 -21 21 -43 37 -22 17 -44 34 -50 38
-28 23 -214 141 -273 173 -140 77 -231 122 -236 116 -3 -3 -6 0 -6 6 0 7 -3
11 -8 10 -4 -1 -23 5 -42 14 -76 37 -337 132 -385 141 -11 2 -27 6 -35 9 -34
13 -146 40 -216 53 -11 2 -19 4 -19 5 0 1 -11 3 -25 5 -14 1 -54 8 -90 14 -36
6 -85 13 -110 16 -25 3 -61 8 -80 11 -55 9 -518 12 -590 4 -36 -4 -92 -11
-125 -14 -33 -4 -98 -14 -145 -23 -47 -8 -101 -17 -120 -20 -19 -3 -41 -10
-47 -15 -7 -6 -13 -8 -13 -5 0 3 -17 1 -37 -4 -21 -5 -45 -11 -53 -13 -8 -2
-35 -10 -60 -17 -25 -7 -49 -13 -55 -14 -22 -5 -172 -57 -202 -71 -17 -8 -34
-14 -38 -14 -4 0 -36 -13 -72 -30 -35 -16 -71 -30 -79 -30 -8 0 -14 -4 -14
-10 0 -5 -6 -10 -13 -10 -17 0 -211 -101 -215 -111 -2 -5 -7 -7 -12 -4 -4 3
-13 -2 -20 -10 -7 -8 -17 -15 -22 -15 -12 0 -230 -143 -254 -167 -10 -10 -20
-17 -23 -16 -3 1 -17 -8 -31 -20 -14 -13 -35 -30 -47 -38 -126 -88 -385 -345
-528 -524 -22 -28 -43 -51 -47 -53 -5 -2 -8 -9 -8 -15 0 -7 -14 -28 -30 -47
-16 -19 -30 -38 -30 -41 0 -3 -11 -19 -25 -35 -14 -16 -25 -32 -25 -35 0 -4
-16 -31 -36 -60 -43 -64 -120 -202 -115 -208 1 -2 -2 -7 -7 -10 -10 -6 -101
-192 -105 -214 -1 -7 -5 -14 -8 -17 -12 -11 -117 -308 -135 -385 -9 -36 -12
-50 -13 -52 -1 -2 -1 -5 -1 -8 -1 -3 -7 -26 -15 -52 -23 -83 -57 -271 -70
-393 -22 -216 -23 -574 0 -711 2 -13 6 -46 10 -74 8 -68 27 -181 39 -230 2
-11 11 -49 20 -85 8 -36 22 -90 31 -120 9 -30 18 -62 20 -70 53 -193 195 -511
320 -714 80 -131 195 -296 207 -296 4 0 8 -5 8 -11 0 -10 27 -44 130 -163 14
-15 57 -62 96 -102 l71 -74 -36 -20 c-20 -11 -48 -25 -63 -31 -16 -6 -28 -15
-28 -20 0 -5 -4 -9 -9 -9 -11 0 -140 -79 -159 -97 -7 -7 -20 -13 -28 -13 -8 0
-14 -4 -14 -8 0 -4 -14 -16 -31 -26 -116 -69 -376 -284 -537 -446 -111 -112
-342 -385 -342 -404 0 -7 -12 -24 -42 -57 -10 -10 -16 -19 -13 -19 3 0 -10
-21 -28 -48 -18 -26 -45 -68 -60 -94 -15 -27 -33 -48 -40 -49 -63 -5 -520 -2
-523 3 -3 4 -15 4 -27 0 -26 -9 -444 -9 -453 0 -3 4 -16 3 -28 0 -26 -9 -443
-8 -452 0 -3 4 -16 3 -28 -1 -25 -8 -153 -6 -181 4 -101 35 -162 99 -180 190
-10 48 -11 205 -1 205 5 0 4 6 -1 13 -10 14 -10 208 1 225 4 7 4 12 -1 12 -4
0 -8 38 -8 85 0 47 4 85 8 85 5 0 5 6 1 12 -12 20 -12 212 0 220 8 5 8 8 1 8
-12 0 -13 40 -1 58 4 7 3 12 -1 12 -5 0 -7 26 -6 58 2 31 3 62 3 67 0 6 -1 69
-3 140 -2 82 1 133 8 137 7 5 7 8 0 8 -12 0 -13 40 -1 58 4 7 4 12 -1 12 -4 0
-8 38 -8 85 0 47 4 85 8 85 5 0 5 5 1 12 -10 16 -11 208 -1 208 5 0 5 5 1 12
-11 17 -11 308 0 308 5 0 4 6 -1 13 -10 14 -10 208 1 225 4 7 4 12 -1 12 -4 0
-8 38 -8 85 0 47 4 85 8 85 5 0 5 6 1 12 -12 20 -12 212 0 220 8 5 8 8 1 8
-12 0 -13 40 -1 58 4 7 3 12 -1 12 -5 0 -7 26 -6 58 2 31 3 62 3 67 0 6 -1 69
-3 140 -2 82 1 133 8 137 7 5 7 8 0 8 -12 0 -13 40 -1 58 4 7 4 12 -1 12 -4 0
-8 38 -8 85 0 47 4 85 8 85 5 0 5 5 1 12 -10 16 -11 208 -1 208 5 0 5 5 1 12
-11 17 -11 308 0 308 5 0 4 6 -1 13 -10 14 -10 208 1 225 4 7 4 12 -1 12 -4 0
-8 38 -8 85 0 47 4 85 8 85 5 0 5 6 1 12 -12 20 -12 212 0 220 8 5 8 8 1 8
-12 0 -13 40 -1 58 4 7 3 12 -1 12 -5 0 -7 26 -6 58 2 31 3 62 3 67 0 6 -1 69
-3 140 -2 82 1 133 8 137 7 5 7 8 0 8 -12 0 -13 40 -1 58 4 7 4 12 -1 12 -4 0
-8 38 -8 85 0 47 4 85 8 85 5 0 5 5 1 12 -10 16 -11 208 -1 208 5 0 5 5 1 12
-11 17 -11 308 0 308 5 0 4 6 -1 13 -10 14 -10 208 1 225 4 7 4 12 -1 12 -4 0
-8 38 -8 85 0 47 4 85 8 85 5 0 5 6 1 12 -12 20 -12 212 0 220 8 5 8 8 1 8
-12 0 -13 40 -1 58 4 7 4 12 -1 12 -10 0 -10 91 1 108 4 7 3 12 -1 12 -5 0 -8
10 -7 23 2 37 26 107 37 107 6 0 8 3 4 6 -10 10 55 72 103 98 l45 24 5324 1
c4165 1 5332 -2 5365 -11z m-5130 -822 c49 -4 106 -9 125 -12 92 -13 222 -37
281 -51 36 -8 73 -16 83 -18 10 -2 32 -9 50 -14 238 -76 344 -118 502 -198 61
-31 120 -61 132 -67 13 -6 23 -14 23 -18 0 -5 5 -8 11 -8 13 0 153 -90 157
-102 2 -4 8 -8 13 -8 10 0 148 -104 213 -159 100 -86 215 -198 290 -285 28
-33 58 -67 66 -76 8 -9 24 -28 35 -44 18 -25 41 -55 63 -82 5 -5 22 -30 38
-55 16 -24 31 -46 34 -49 3 -3 21 -30 40 -60 133 -219 231 -431 297 -645 18
-60 38 -125 44 -143 6 -19 12 -44 14 -55 2 -12 6 -33 9 -47 6 -25 8 -36 26
-140 30 -174 34 -237 33 -475 0 -208 -4 -277 -18 -370 -18 -111 -22 -132 -31
-147 -5 -7 -3 -8 5 -3 10 6 11 3 2 -13 -6 -11 -11 -32 -11 -46 0 -14 -5 -28
-11 -31 -5 -4 -8 -12 -6 -18 2 -7 0 -25 -5 -42 -5 -16 -11 -40 -14 -53 -2 -12
-20 -72 -40 -132 -19 -60 -35 -113 -34 -116 1 -4 -2 -10 -7 -13 -4 -3 -14 -24
-21 -46 -21 -62 -192 -405 -203 -405 -5 0 -9 -4 -9 -10 0 -24 -208 -319 -232
-328 -4 -2 -8 -8 -8 -13 0 -10 -51 -66 -171 -187 -103 -105 -156 -152 -235
-212 -32 -25 -61 -48 -64 -51 -6 -7 -217 -149 -248 -167 -110 -62 -187 -102
-197 -102 -8 0 -15 -4 -17 -8 -4 -9 -117 -60 -224 -100 -125 -47 -193 -72
-202 -72 -4 0 -29 -6 -57 -14 -65 -19 -282 -67 -292 -65 -4 1 -10 0 -13 -1
-11 -4 -48 -10 -95 -15 -265 -30 -570 -22 -817 20 -285 50 -544 137 -804 270
-160 83 -337 193 -434 272 -8 6 -42 33 -75 60 -191 152 -388 367 -533 579 -96
142 -123 189 -208 364 -36 74 -70 144 -75 155 -6 12 -11 27 -13 35 -3 15 -7
26 -33 90 -8 19 -17 46 -19 59 -3 14 -8 29 -12 35 -3 6 -7 16 -8 21 -1 6 -14
53 -28 105 -14 52 -30 120 -36 150 -6 30 -12 66 -15 80 -8 37 -23 148 -31 221
-9 81 -10 453 -1 539 9 83 16 138 22 170 3 14 8 42 11 64 3 21 8 47 10 57 2
11 6 28 9 40 2 11 7 29 10 39 3 10 7 31 9 46 8 59 105 346 120 356 6 4 8 8 4
8 -11 0 124 296 141 310 3 3 17 25 30 50 23 43 149 239 161 250 3 3 19 23 35
45 122 164 288 336 465 481 19 16 37 32 38 37 2 4 8 7 13 7 6 0 22 11 37 25
15 14 32 25 39 25 6 0 13 4 15 9 2 5 35 30 73 55 39 25 75 50 82 56 7 5 14 10
16 10 2 0 56 29 120 65 64 36 119 65 122 65 2 0 36 15 75 34 38 19 70 33 70
31 0 -2 31 9 69 25 101 43 362 118 471 135 20 3 47 7 60 10 69 14 89 16 135
20 28 2 50 5 50 5 0 1 31 3 68 5 38 2 70 5 72 7 5 5 272 1 369 -6z m-2093
-5386 c6 0 17 -6 25 -14 21 -22 240 -159 314 -197 36 -19 67 -37 68 -41 2 -5
7 -8 12 -8 5 0 50 -20 102 -43 51 -24 125 -56 163 -72 39 -15 82 -34 98 -42
15 -8 27 -12 27 -9 0 3 33 -7 73 -21 39 -14 79 -27 87 -28 8 -2 60 -16 115
-30 105 -28 107 -28 170 -40 373 -68 677 -77 1050 -30 40 5 96 15 115 20 8 2
33 7 55 10 23 3 52 8 65 11 14 3 36 7 49 10 14 3 28 7 31 9 4 2 21 7 38 10 18
3 69 17 114 31 46 15 90 28 98 29 8 2 17 4 20 5 3 1 8 2 13 1 4 0 7 3 7 7 0 4
8 8 18 9 9 1 54 17 99 36 45 19 84 33 86 31 2 -3 10 2 17 11 7 8 18 15 26 15
30 0 417 208 469 253 6 4 43 30 83 57 77 52 82 52 132 13 8 -6 18 -12 23 -12
19 -1 259 -140 265 -153 2 -5 8 -8 14 -8 12 0 102 -61 106 -72 2 -4 10 -8 18
-8 8 0 14 -4 14 -10 0 -5 5 -10 10 -10 11 0 135 -93 160 -121 8 -9 20 -18 26
-20 32 -11 247 -217 360 -344 76 -86 184 -220 184 -229 0 -3 7 -14 15 -23 20
-23 15 -36 -12 -38 -12 0 -19 4 -16 9 4 5 0 6 -8 0 -19 -12 -112 -11 -121 1
-5 7 -8 7 -8 0 0 -11 -435 -13 -446 -3 -3 4 -16 3 -28 0 -26 -9 -443 -8 -452
0 -3 4 -16 3 -28 0 -26 -9 -443 -8 -452 0 -3 4 -16 3 -28 0 -26 -9 -443 -8
-452 0 -3 4 -16 3 -28 0 -26 -9 -443 -8 -452 0 -3 4 -16 3 -28 0 -26 -9 -443
-8 -452 0 -3 4 -16 3 -28 0 -26 -9 -443 -8 -452 0 -3 4 -16 3 -28 0 -26 -9
-443 -8 -452 0 -3 4 -16 3 -28 0 -26 -9 -443 -8 -452 0 -3 4 -16 3 -28 0 -26
-9 -443 -8 -452 0 -3 4 -16 3 -28 0 -26 -9 -443 -8 -452 0 -3 4 -16 3 -28 0
-18 -7 -442 -8 -456 -2 -3 1 -9 1 -15 0 -5 -2 -107 -3 -227 -4 -211 -1 -216
-1 -206 18 6 11 15 25 19 30 5 6 35 45 66 86 80 103 81 105 146 174 32 33 68
72 81 86 72 79 268 250 371 325 16 11 33 25 39 30 6 6 31 24 56 40 25 17 50
34 55 38 50 39 269 169 281 167 4 -1 10 2 13 7 3 4 24 17 46 28 22 11 43 25
47 30 4 6 8 7 8 3 0 -4 12 0 27 7 24 13 29 13 36 0 4 -8 13 -15 18 -15z"/>
<path d="M8757 8884 c-1 -1 -20 -5 -42 -8 -52 -6 -83 -13 -95 -21 -5 -3 -18
-8 -29 -10 -40 -7 -138 -72 -192 -126 -110 -110 -166 -246 -162 -394 1 -78 6
-124 13 -132 2 -2 3 -6 5 -10 1 -5 5 -21 10 -38 21 -75 102 -189 175 -246 52
-42 138 -89 160 -89 9 0 20 -4 26 -9 10 -11 118 -25 174 -24 60 2 125 13 173
32 15 6 27 7 27 3 0 -4 4 -2 8 3 4 6 25 19 46 30 84 43 174 136 221 230 49 98
62 158 60 272 -4 154 -48 255 -160 368 -67 69 -151 122 -220 140 -16 5 -37 10
-45 12 -27 7 -149 21 -153 17z m106 -395 c22 -12 86 -76 88 -88 0 -3 3 -15 5
-26 22 -90 -16 -166 -101 -207 -100 -48 -226 22 -241 134 -12 84 26 152 104
186 46 21 106 21 145 1z"/>
<path d="M5139 6566 c-2 -2 -18 -6 -36 -9 -84 -13 -159 -53 -219 -119 -28 -30
-63 -86 -65 -105 -1 -5 -6 -19 -11 -33 -16 -37 -17 -148 -2 -196 43 -143 169
-254 294 -258 27 0 50 -4 50 -7 0 -9 61 -1 105 15 94 34 152 78 197 148 43 67
59 119 60 197 1 56 -25 155 -43 167 -5 3 -7 9 -4 13 2 5 -19 33 -48 63 -59 62
-140 105 -211 112 -26 3 -50 8 -55 10 -4 3 -10 4 -12 2z"/>
<path d="M6846 6563 c-4 -4 -17 -8 -29 -8 -135 -5 -263 -106 -312 -245 -15
-41 -21 -143 -12 -180 19 -73 53 -135 100 -182 74 -74 148 -105 257 -110 32
-1 99 10 114 19 6 4 17 8 24 9 20 3 87 50 117 81 68 71 98 146 100 247 3 139
-69 261 -189 324 -56 28 -53 27 -111 37 -22 4 -43 9 -46 11 -3 2 -9 0 -13 -3z"/>
<path d="M4270 4569 c-41 -28 -108 -71 -147 -96 -40 -25 -73 -48 -73 -52 0 -5
18 -37 41 -71 167 -259 441 -524 704 -682 123 -74 361 -188 420 -202 6 -2 48
-14 95 -29 87 -26 199 -56 235 -62 11 -2 38 -7 60 -11 22 -4 51 -8 65 -10 14
-1 25 -3 25 -4 0 -1 25 -3 56 -4 31 -2 60 -5 65 -8 21 -13 444 2 522 17 12 3
34 7 50 10 27 5 85 16 111 21 63 12 182 47 291 86 97 34 333 145 338 159 2 5
9 9 15 9 6 0 28 11 49 25 21 14 57 37 81 53 23 15 48 33 55 40 7 6 16 12 20
12 4 0 21 13 39 28 17 15 44 37 60 49 69 53 189 169 263 253 30 35 60 68 65
74 40 44 165 227 165 242 0 10 -61 57 -95 74 -19 10 -100 63 -105 69 -8 11
-97 61 -108 61 -5 0 -14 -12 -21 -27 -12 -25 -85 -130 -136 -193 -39 -48 -221
-227 -270 -266 -27 -21 -52 -42 -55 -45 -3 -3 -41 -29 -85 -57 -44 -29 -84
-55 -90 -60 -21 -17 -195 -102 -208 -102 -8 0 -20 -7 -27 -15 -7 -8 -23 -15
-36 -15 -12 0 -25 -4 -28 -9 -4 -6 -73 -30 -106 -36 -3 -1 -30 -9 -60 -18 -30
-9 -67 -18 -82 -21 -15 -3 -31 -7 -35 -9 -5 -3 -30 -7 -58 -11 -27 -3 -59 -8
-70 -10 -166 -32 -461 -21 -670 25 -49 11 -99 22 -110 24 -11 3 -32 7 -47 11
-16 3 -28 10 -28 15 0 6 -4 8 -9 5 -23 -15 -447 185 -459 216 -2 4 -8 8 -13 8
-5 0 -17 6 -26 14 -10 8 -47 37 -83 63 -137 101 -377 367 -439 486 -8 15 -19
27 -25 26 -6 0 -45 -23 -86 -50z"/>
</g>
</svg>
